<svg xmlns="http://www.w3.org/2000/svg" id="Layer_1" enable-background="new 0 0 256 256" height="512" viewBox="0 0 256 256" width="512"><g><g><path d="m246.745 214.362h-237.49v-158.291c0-5.966 4.837-10.803 10.803-10.803h215.885c5.966 0 10.803 4.837 10.803 10.803v158.291z" fill="#fff" opacity="0.1"/></g><g><path d="m246.745 214.362h-237.49v19.596c0 5.966 4.837 10.803 10.803 10.803h215.885c5.966 0 10.803-4.837 10.803-10.803v-19.596z" fill="#4f2cff" opacity="0.3"/></g><g><g><path d="m82.772 119.764h90.456v20.101h-90.456z" fill="#4f2cff" opacity="0.4"/></g><g><path d="m173.228 141.865h-90.456c-1.104 0-2-.896-2-2v-20.101c0-1.104.896-2 2-2h90.456c1.104 0 2 .896 2 2v20.101c0 1.105-.895 2-2 2zm-88.456-4h86.456v-16.101h-86.456z" fill="#4f2cff"/></g><g><path d="m196.717 177.782h-19.72c-2.082 0-3.769-1.687-3.769-3.769v-88.396c0-2.082 1.687-3.769 3.769-3.769h19.72c2.082 0 3.769 1.687 3.769 3.769v88.395c0 2.082-1.687 3.77-3.769 3.77z" fill="#4f2cff" opacity="0.8"/></g><g><path d="m200.486 169.787h11.116c1.388 0 2.513-1.125 2.513-2.513v-74.918c0-1.388-1.125-2.513-2.513-2.513h-11.116z" fill="#4f2cff" opacity="0.6"/></g><g><path d="m59.283 81.848h19.72c2.082 0 3.769 1.687 3.769 3.769v88.395c0 2.082-1.687 3.769-3.769 3.769h-19.72c-2.082 0-3.769-1.687-3.769-3.769v-88.395c0-2.081 1.687-3.769 3.769-3.769z" fill="#4f2cff" opacity="0.8"/></g><g><path d="m55.514 89.843h-11.117c-1.388 0-2.513 1.125-2.513 2.513v74.919c0 1.388 1.125 2.513 2.513 2.513h11.116v-79.945z" fill="#4f2cff" opacity="0.6"/></g><g><path d="m196.717 179.781h-19.721c-3.181 0-5.769-2.588-5.769-5.769v-88.395c0-3.181 2.588-5.769 5.769-5.769h19.721c3.181 0 5.769 2.588 5.769 5.769v88.396c0 3.18-2.588 5.768-5.769 5.768zm-19.72-95.932c-.975 0-1.769.793-1.769 1.769v88.396c0 .976.793 1.769 1.769 1.769h19.721c.975 0 1.769-.793 1.769-1.769v-88.397c0-.976-.793-1.769-1.769-1.769h-19.721z" fill="#4f2cff"/></g><g><path d="m211.603 171.787h-11.117c-1.104 0-2-.896-2-2v-79.944c0-1.104.896-2 2-2h11.117c2.488 0 4.513 2.024 4.513 4.513v74.919c-.001 2.488-2.025 4.512-4.513 4.512zm-9.117-4h9.117c.283 0 .513-.23.513-.513v-74.919c0-.282-.23-.513-.513-.513h-9.117z" fill="#4f2cff"/></g><g><path d="m79.003 179.781h-19.72c-3.181 0-5.769-2.588-5.769-5.769v-88.395c0-3.181 2.588-5.769 5.769-5.769h19.721c3.181 0 5.769 2.588 5.769 5.769v88.396c-.001 3.18-2.589 5.768-5.77 5.768zm-19.72-95.932c-.975 0-1.769.793-1.769 1.769v88.396c0 .976.793 1.769 1.769 1.769h19.721c.975 0 1.769-.793 1.769-1.769v-88.397c0-.976-.793-1.769-1.769-1.769h-19.721z" fill="#4f2cff"/></g><g><path d="m55.514 171.787h-11.117c-2.488 0-4.513-2.024-4.513-4.513v-74.919c0-2.488 2.024-4.513 4.513-4.513h11.117c1.104 0 2 .896 2 2v79.944c0 1.106-.895 2.001-2 2.001zm-11.117-79.944c-.283 0-.513.23-.513.513v74.919c0 .282.23.513.513.513h9.117v-75.945z" fill="#4f2cff"/></g></g><g><path d="m232.292 233.162h-164.383v-7.202h164.383c1.989 0 3.601 1.612 3.601 3.601 0 1.989-1.612 3.601-3.601 3.601z" fill="#e0ebfc"/></g><g><path d="m67.909 233.162h-44.201c-1.989 0-3.601-1.612-3.601-3.601 0-1.989 1.612-3.601 3.601-3.601h44.202v7.202z" fill="#ffc55e"/></g><g><path d="m70.23 238.204h-4.642c-1.105 0-2-.895-2-2v-13.285c0-1.105.895-2 2-2h4.642c1.105 0 2 .895 2 2v13.285c0 1.104-.895 2-2 2z" fill="#ffa438"/></g><g><path d="m246.746 216.362h-237.492c-1.104 0-2-.896-2-2v-158.291c0-7.06 5.743-12.803 12.803-12.803h215.886c7.06 0 12.803 5.743 12.803 12.803v158.291c0 1.105-.896 2-2 2zm-235.492-4h233.491v-156.291c0-4.854-3.949-8.803-8.803-8.803h-215.885c-4.854 0-8.803 3.949-8.803 8.803z" fill="#4f2cff"/></g><g><path d="m235.943 246.761h-215.886c-7.06 0-12.803-5.743-12.803-12.803v-19.596c0-1.104.896-2 2-2h237.491c1.104 0 2 .896 2 2v19.596c.001 7.06-5.743 12.803-12.802 12.803zm-224.689-30.399v17.596c0 4.854 3.949 8.803 8.803 8.803h215.886c4.854 0 8.803-3.949 8.803-8.803v-17.596z" fill="#4f2cff"/></g><g><circle cx="128" cy="45.268" fill="#4f2cff" r="34.029"/></g><g><path d="m115.321 32.974v25.921c0 3.188 3.446 5.184 6.211 3.599l23.061-13.217c2.808-1.609 2.774-5.671-.061-7.233l-23.061-12.704c-2.765-1.523-6.15.478-6.15 3.634z" fill="#ffa438"/></g><g><path d="m128 81.297c-19.866 0-36.029-16.162-36.029-36.028s16.163-36.03 36.029-36.03 36.029 16.163 36.029 36.029-16.163 36.029-36.029 36.029zm0-68.058c-17.661 0-32.029 14.368-32.029 32.029 0 17.66 14.368 32.028 32.029 32.028s32.029-14.368 32.029-32.028c0-17.661-14.368-32.029-32.029-32.029z" fill="#4f2cff"/></g></g></svg>