<svg xmlns="http://www.w3.org/2000/svg" xmlns:xlink="http://www.w3.org/1999/xlink" id="Capa_1" enable-background="new 0 0 512 512" height="512" viewBox="0 0 512 512" width="512"><linearGradient id="SVGID_1_" gradientUnits="userSpaceOnUse" x1="48.923" x2="470.375" y1="256" y2="256"><stop offset=".0485" stop-color="#ffdbed"/><stop offset=".9993" stop-color="#d2deff"/></linearGradient><g><g><g/><g><g><g><path d="m411.649 191.167h-75v-69.667c0-5.523-4.477-10-10-10h-219c-5.523 0-10 4.477-10 10v287c0 22.091 17.909 40 40 40h244c22.091 0 40-17.909 40-40v-207.333c0-5.523-4.477-10-10-10z" fill="#2626bc" opacity=".1"/><path d="m196.06 167.167v257.333h185.589c22.091 0 40-17.909 40-40v-207.333c0-5.523-4.477-10-10-10z" fill="#4f2cff" opacity="0.2"/><path d="m421.649 177.17v101.83h-225.59v-111.83h215.59c5.52 0 10 4.47 10 10z" fill="#4f2cff" opacity="0.6"/><path d="m336.649 384.5v-287c0-5.523-4.477-10-10-10h-219c-5.523 0-10 4.477-10 10v287c0 22.091 17.909 40 40 40h239c-22.091 0-40-17.908-40-40z" fill="#fff"/></g><g><g><path d="m156.287 191.959c-1.447 0-2.857-.629-3.826-1.78l-19.766-23.477v20.257c0 2.761-2.239 5-5 5s-5-2.239-5-5v-33.959c0-2.101 1.313-3.977 3.286-4.697s4.186-.13 5.539 1.477l19.766 23.477v-20.255c0-2.761 2.239-5 5-5s5 2.239 5 5v33.957c0 2.101-1.313 3.977-3.286 4.697-.56.204-1.139.303-1.713.303z" fill="#ffa438"/></g><g><path d="m196.194 191.959h-19.123c-2.761 0-5-2.239-5-5v-33.959c0-2.761 2.239-5 5-5h19.123c2.761 0 5 2.239 5 5s-2.239 5-5 5h-14.123v23.959h14.123c2.761 0 5 2.239 5 5s-2.239 5-5 5z" fill="#ffa438"/></g><g><path d="m294.658 191.959h-10.633c-2.761 0-5-2.239-5-5s2.239-5 5-5h10.633c1.924 0 3.49-1.565 3.49-3.49s-1.566-3.49-3.49-3.49h-2.144c-7.438 0-13.489-6.051-13.489-13.489s6.051-13.49 13.489-13.49h10.634c2.761 0 5 2.239 5 5s-2.239 5-5 5h-10.634c-1.924 0-3.489 1.565-3.489 3.49 0 1.924 1.565 3.489 3.489 3.489h2.144c7.438 0 13.49 6.052 13.49 13.49s-6.052 13.49-13.49 13.49z" fill="#ffa438"/></g><g fill="#ffa438"><g><path d="m229.293 191.959c-.001 0-.001 0 0 0-1.923 0-3.675-1.103-4.507-2.835l-16.309-33.959c-1.195-2.489-.146-5.476 2.343-6.672 2.487-1.194 5.476-.147 6.672 2.343l11.803 24.577 6.19-12.88c1.196-2.489 4.182-3.539 6.672-2.34 2.489 1.196 3.537 4.183 2.34 6.672l-10.699 22.261c-.831 1.731-2.583 2.833-4.505 2.833z"/><path d="m250.686 191.956c-1.922 0-3.674-1.102-4.507-2.835l-16.313-33.954c-1.196-2.489-.147-5.476 2.342-6.672 2.487-1.196 5.477-.148 6.672 2.342l11.806 24.573 11.807-24.574c1.196-2.489 4.182-3.537 6.672-2.341 2.489 1.196 3.537 4.183 2.341 6.672l-16.313 33.954c-.833 1.733-2.585 2.835-4.507 2.835z"/></g><path d="m187.495 174.979h-10.424c-2.761 0-5-2.239-5-5s2.239-5 5-5h10.424c2.761 0 5 2.239 5 5s-2.239 5-5 5z"/></g></g><g><path d="m196.029 215.7v139.25c0 2.76-2.24 5-5 5h-63.5c-2.76 0-5-2.24-5-5v-139.25c0-2.76 2.24-5 5-5h63.5c2.76 0 5 2.24 5 5z" fill="#ffc55e" opacity="0.6"/><g><path d="m313.446 339.951h-100.187c-2.762 0-5-2.239-5-5s2.238-5 5-5h100.187c2.762 0 5 2.239 5 5s-2.238 5-5 5z" fill="#b7c5ff"/></g><g><path d="m313.446 359.951h-100.187c-2.762 0-5-2.239-5-5s2.238-5 5-5h100.187c2.762 0 5 2.239 5 5s-2.238 5-5 5z" fill="#b7c5ff"/></g><g><path d="m313.446 379.951h-188.416c-2.762 0-5-2.239-5-5s2.238-5 5-5h188.417c2.762 0 5 2.239 5 5s-2.239 5-5.001 5z" fill="#b7c5ff"/></g><g><path d="m313.446 399.951h-188.416c-2.762 0-5-2.239-5-5s2.238-5 5-5h188.417c2.762 0 5 2.239 5 5s-2.239 5-5.001 5z" fill="#b7c5ff"/></g><g><g><path d="m313.446 279.951h-100.187c-2.762 0-5-2.239-5-5s2.238-5 5-5h100.187c2.762 0 5 2.239 5 5s-2.238 5-5 5z" fill="#b7c5ff"/></g><g><path d="m313.446 299.951h-100.187c-2.762 0-5-2.239-5-5s2.238-5 5-5h100.187c2.762 0 5 2.239 5 5s-2.238 5-5 5z" fill="#b7c5ff"/></g><g><path d="m313.446 319.951h-100.187c-2.762 0-5-2.239-5-5s2.238-5 5-5h100.187c2.762 0 5 2.239 5 5s-2.238 5-5 5z" fill="#b7c5ff"/></g></g><g><g><path d="m313.446 219.951h-100.187c-2.762 0-5-2.239-5-5s2.238-5 5-5h100.187c2.762 0 5 2.239 5 5s-2.238 5-5 5z" fill="#b7c5ff"/></g><g><path d="m313.446 239.951h-100.187c-2.762 0-5-2.239-5-5s2.238-5 5-5h100.187c2.762 0 5 2.239 5 5s-2.238 5-5 5z" fill="#b7c5ff"/></g><g><path d="m313.446 259.951h-100.187c-2.762 0-5-2.239-5-5s2.238-5 5-5h100.187c2.762 0 5 2.239 5 5s-2.238 5-5 5z" fill="#b7c5ff"/></g></g></g><g><path d="m153.439 313.48c8.52-6.35 22.72-11.02 42.59-13.99v-8.43c-22.67 2.8-40.94 8.11-54.8 15.9-9.09 5.12-15.32 11.05-18.7 17.82v25.28c1.56 2.85 3.72 5.42 6.49 7.7.96.8 1.99 1.53 3.08 2.19h49.23c4.43-2.53 9.33-6.44 14.7-11.71v-16.03c-1.82 4.51-4.48 8.58-7.99 12.21-7.3 7.55-15.92 11.32-25.87 11.32-5.57 0-10.08-1.83-13.54-5.5s-5.19-8.75-5.19-15.25c0-9.28 3.33-16.45 10-21.51zm23.28-73.51c-15.27 0-27.61 3.46-37.01 10.37-9.41 6.92-14.11 14.55-14.11 22.91 0 4.47 1.41 8.14 4.24 11 2.82 2.87 6.34 4.31 10.56 4.31 3.97 0 7.17-1.21 9.62-3.61 2.44-2.4 3.67-5.5 3.67-9.3 0-2.61-1.23-5.61-3.67-8.98-2.03-2.7-3.04-4.68-3.04-5.95 0-2.19 1.9-4.43 5.7-6.71 5.31-3.03 11.64-4.55 18.98-4.55 7.92 0 14.46 2.28 19.61 6.83 1.96 1.74 3.55 3.61 4.76 5.62v-19.45c-5.53-1.66-11.97-2.49-19.31-2.49z" fill="#4f2cff"/></g><g><g><path d="m285.961 122c-2.761 0-5-2.239-5-5v-3.5c0-2.761 2.239-5 5-5s5 2.239 5 5v3.5c0 2.761-2.239 5-5 5z" fill="#4f2cff"/></g><g><path d="m301.211 122c-2.761 0-5-2.239-5-5v-3.5c0-2.761 2.239-5 5-5s5 2.239 5 5v3.5c0 2.761-2.239 5-5 5z" fill="#4f2cff"/></g></g><path d="m229.373 129h-101.844c-2.761 0-5-2.239-5-5v-10.5c0-2.761 2.239-5 5-5h101.843c2.761 0 5 2.239 5 5v10.5c.001 2.761-2.238 5-4.999 5z" fill="#ffa438"/></g><path d="m57.625 308.865c-1.28 0-2.559-.488-3.536-1.464l-11-11c-1.953-1.953-1.953-5.119 0-7.071l11-11c1.953-1.952 5.118-1.952 7.071 0l11 11c1.953 1.953 1.953 5.119 0 7.071l-11 11c-.976.975-2.255 1.464-3.535 1.464zm-3.929-16 3.929 3.929 3.929-3.929-3.929-3.929z" fill="#ffc55e"/><path d="m399.649 138.106c-1.28 0-2.559-.488-3.536-1.464l-11-11c-1.953-1.953-1.953-5.119 0-7.071l11-11c1.953-1.952 5.118-1.952 7.071 0l11 11c1.953 1.953 1.953 5.119 0 7.071l-11 11c-.976.976-2.255 1.464-3.535 1.464zm-3.928-16 3.929 3.929 3.929-3.929-3.929-3.929z" fill="#6583fe"/><path d="m367.979 89.248c-2.761 0-5-2.239-5-5 0-3.309-2.691-6-6-6-2.761 0-5-2.239-5-5s2.239-5 5-5c3.309 0 6-2.691 6-6 0-2.761 2.239-5 5-5s5 2.239 5 5c0 3.309 2.691 6 6 6 2.761 0 5 2.239 5 5s-2.239 5-5 5c-3.309 0-6 2.691-6 6 0 2.761-2.238 5-5 5z" fill="#ffc55e"/><path d="m122.529 73.731c-2.761 0-5-2.239-5-5 0-3.309-2.691-6-6-6-2.761 0-5-2.239-5-5s2.239-5 5-5c3.309 0 6-2.691 6-6 0-2.761 2.239-5 5-5s5 2.239 5 5c0 3.309 2.691 6 6 6 2.761 0 5 2.239 5 5s-2.239 5-5 5c-3.309 0-6 2.691-6 6 0 2.761-2.239 5-5 5z" fill="#4f2cff"/></g></g><path d="m97.649 292.83c-2.761 0-5 2.239-5 5v86.67c0 24.813 20.187 45 45 45h58.411 180.589 5c24.813 0 45-20.187 45-45v-207.333c0-8.271-6.729-15-15-15h-41.673c-2.761 0-5 2.239-5 5s2.239 5 5 5h41.673c2.757 0 5 2.243 5 5v207.333c0 19.299-15.701 35-35 35h-5c-19.299 0-35-15.701-35-35v-287c0-8.271-6.729-15-15-15h-219c-8.271 0-15 6.729-15 15v166.67c0 2.761 2.239 5 5 5s5-2.239 5-5v-166.67c0-2.757 2.243-5 5-5h219c2.757 0 5 2.243 5 5v287c0 14.121 6.538 26.744 16.746 35h-152.335-58.411c-19.299 0-35-15.701-35-35v-86.67c0-2.761-2.238-5-5-5z" fill="#4f2cff"/></g></svg>