<svg xmlns="http://www.w3.org/2000/svg" xmlns:xlink="http://www.w3.org/1999/xlink" id="Capa_1" enable-background="new 0 0 512 512" height="512" viewBox="0 0 512 512" width="512"><linearGradient id="SVGID_1_" gradientUnits="userSpaceOnUse" x1="15.84" x2="558.827" y1="-84.975" y2="571.716"><stop offset=".0009507276" stop-color="#b3b3ff"/><stop offset=".992" stop-color="#ffe8dc" stop-opacity="0"/></linearGradient><g><g><g fill="#4f2cff" opacity=".1"><path d="m478.003 355.314c-12.716 0-19.309 4.751-25.126 8.943-5.255 3.787-9.793 7.057-19.28 7.057-1.809 0-3.435-.12-4.924-.339-2.07-43.765-20.402-84.596-51.887-115.348-32.48-31.724-75.377-49.195-120.786-49.195s-88.305 17.471-120.786 49.195c-31.485 30.752-49.817 71.582-51.887 115.346-1.49.219-3.119.34-4.931.34-9.486 0-14.023-3.27-19.276-7.056-5.816-4.192-12.409-8.944-25.123-8.944-2.761 0-5 2.239-5 5s2.239 5 5 5c9.486 0 14.023 3.27 19.276 7.056 5.816 4.192 12.409 8.944 25.123 8.944s19.307-4.751 25.124-8.944c5.253-3.786 9.791-7.056 19.276-7.056s14.023 3.27 19.276 7.056c5.816 4.192 12.409 8.944 25.123 8.944 12.712 0 19.305-4.751 25.121-8.944 5.252-3.786 9.789-7.056 19.273-7.056 9.485 0 14.022 3.27 19.276 7.056 5.816 4.192 12.409 8.944 25.123 8.944 12.713 0 19.306-4.751 25.124-8.944 5.253-3.786 9.79-7.056 19.276-7.056s14.024 3.27 19.278 7.056c5.816 4.192 12.409 8.944 25.124 8.944 12.714 0 19.307-4.751 25.124-8.944 5.253-3.786 9.79-7.056 19.276-7.056 9.487 0 14.025 3.27 19.28 7.057 5.817 4.192 12.41 8.943 25.126 8.943s19.309-4.751 25.126-8.943c5.255-3.787 9.793-7.057 19.28-7.057 2.762 0 5-2.239 5-5s-2.237-4.999-4.999-4.999z"/><path d="m389.19 400.517c-12.714 0-19.307 4.751-25.124 8.944-5.253 3.786-9.79 7.056-19.276 7.056s-14.024-3.27-19.277-7.056c-5.817-4.192-12.41-8.944-25.125-8.944-12.714 0-19.307 4.751-25.124 8.944-5.253 3.786-9.79 7.056-19.276 7.056s-14.023-3.27-19.276-7.056c-5.816-4.192-12.409-8.944-25.123-8.944-12.713 0-19.305 4.751-25.121 8.944-5.252 3.786-9.789 7.056-19.273 7.056-9.485 0-14.022-3.27-19.276-7.056-5.816-4.192-12.409-8.944-25.123-8.944-2.761 0-5 2.239-5 5s2.239 5 5 5c9.486 0 14.023 3.27 19.276 7.056 5.816 4.192 12.409 8.944 25.123 8.944 12.712 0 19.305-4.751 25.121-8.944 5.252-3.786 9.789-7.056 19.273-7.056 9.485 0 14.022 3.27 19.276 7.056 5.816 4.192 12.409 8.944 25.123 8.944 12.713 0 19.306-4.751 25.124-8.944 5.253-3.786 9.79-7.056 19.276-7.056s14.024 3.27 19.278 7.056c5.816 4.192 12.409 8.944 25.124 8.944 12.714 0 19.307-4.751 25.124-8.944 5.253-3.786 9.79-7.056 19.276-7.056 2.762 0 5-2.239 5-5s-2.238-5-5-5z"/><path d="m300.388 445.718c-12.714 0-19.307 4.751-25.124 8.944-5.253 3.786-9.79 7.056-19.276 7.056s-14.023-3.27-19.276-7.056c-5.816-4.192-12.409-8.944-25.123-8.944-2.761 0-5 2.239-5 5s2.239 5 5 5c9.485 0 14.022 3.27 19.276 7.056 5.816 4.192 12.409 8.944 25.123 8.944 12.713 0 19.306-4.751 25.124-8.944 5.253-3.786 9.79-7.056 19.276-7.056 2.762 0 5-2.239 5-5s-2.239-5-5-5z"/><path d="m256 183.875c2.762 0 5-2.239 5-5v-85.593c0-2.761-2.238-5-5-5-2.761 0-5 2.239-5 5v85.594c0 2.761 2.239 4.999 5 4.999z"/><path d="m200.235 186.875c.599 2.234 2.619 3.708 4.827 3.708.428 0 .864-.056 1.297-.172 2.667-.715 4.25-3.457 3.536-6.124l-6.624-24.722c-.715-2.667-3.456-4.25-6.124-3.536-2.667.715-4.25 3.457-3.536 6.124z"/><path d="m153.271 207.741c.926 1.604 2.606 2.501 4.335 2.501.848 0 1.708-.216 2.495-.671 2.392-1.381 3.211-4.438 1.83-6.83l-34.791-60.261c-1.38-2.391-4.437-3.21-6.83-1.83-2.392 1.381-3.211 4.438-1.83 6.83z"/><path d="m113.308 240.052c.977.976 2.256 1.464 3.536 1.464s2.559-.488 3.536-1.464c1.953-1.953 1.953-5.119 0-7.071l-18.098-18.098c-1.953-1.952-5.118-1.952-7.071 0-1.953 1.953-1.953 5.119 0 7.071z"/><path d="m85.563 282.275c1.728 0 3.409-.897 4.335-2.501 1.381-2.392.562-5.449-1.83-6.83l-63.291-36.541c-2.393-1.381-5.45-.561-6.83 1.83-1.381 2.392-.562 5.449 1.83 6.83l63.291 36.541c.788.455 1.647.671 2.495.671z"/><path d="m42.481 313.284c-2.669-.715-5.408.869-6.124 3.536-.715 2.667.868 5.409 3.536 6.124l24.721 6.624c.434.116.869.172 1.297.172 2.208 0 4.228-1.474 4.827-3.708.715-2.667-.868-5.409-3.536-6.124z"/><path d="m305.641 190.411c.434.116.868.172 1.297.172 2.208 0 4.229-1.474 4.827-3.708l6.624-24.722c.714-2.667-.869-5.409-3.536-6.124-2.668-.714-5.409.868-6.124 3.536l-6.624 24.722c-.714 2.667.869 5.409 3.536 6.124z"/><path d="m351.898 209.571c.787.455 1.647.671 2.495.671 1.729 0 3.409-.897 4.335-2.501l34.792-60.261c1.381-2.392.562-5.449-1.83-6.83-2.393-1.381-5.45-.561-6.83 1.83l-34.792 60.261c-1.38 2.392-.561 5.449 1.83 6.83z"/><path d="m391.622 240.052c.976.976 2.256 1.464 3.535 1.464s2.56-.488 3.535-1.464l18.097-18.098c1.953-1.953 1.953-5.119 0-7.071-1.951-1.952-5.119-1.952-7.07 0l-18.097 18.098c-1.953 1.952-1.953 5.118 0 7.071z"/><path d="m494.053 238.233c-1.38-2.391-4.438-3.212-6.83-1.83l-63.291 36.541c-2.392 1.381-3.211 4.438-1.83 6.83.926 1.604 2.606 2.501 4.335 2.501.848 0 1.708-.216 2.495-.671l63.291-36.541c2.391-1.381 3.211-4.438 1.83-6.83z"/><path d="m446.089 329.739c.428 0 .863-.056 1.297-.172l24.722-6.624c2.667-.715 4.25-3.457 3.536-6.124-.715-2.667-3.451-4.251-6.124-3.536l-24.722 6.624c-2.667.715-4.25 3.457-3.536 6.124.598 2.235 2.619 3.708 4.827 3.708z"/></g><g><g><path d="m423.82 351.033c-13.1-3.79-16.28-14.72-34.63-14.72-22.2 0-22.2 16-44.4 16s-22.2-16-44.4-16-22.2 16-44.4 16-22.2-16-44.4-16-22.2 16-44.4 16c-22.19 0-22.19-16-44.39-16-18.35 0-21.53 10.93-34.62 14.72 2.26-90.74 76.54-163.6 167.82-163.6s165.56 72.86 167.82 163.6z" fill="#ffc55e"/><path d="m374.32 339.6c-9.22 4.69-13.81 12.71-29.53 12.71-22.2 0-22.2-16-44.4-16s-22.2 16-44.4 16-22.2-16-44.4-16-22.2 16-44.4 16c-15.7 0-20.29-8.01-29.51-12.7 7.3-58.86 57.5-104.4 118.32-104.4s111.02 45.54 118.32 104.39z" fill="#ffa438"/><path d="m331.07 349.56c-10.02-4.56-14.32-13.25-30.68-13.25-22.2 0-22.2 16-44.4 16s-22.2-16-44.4-16c-16.34 0-20.65 8.67-30.65 13.24 10.28-31.62 40-54.48 75.06-54.48s64.78 22.86 75.07 54.49z" fill="#ffab66"/></g><g fill="#4f2cff"><path d="m148.127 226.592c.986 1.25 2.449 1.901 3.927 1.901 1.085 0 2.178-.352 3.096-1.076 23.882-18.858 52.446-30.604 82.604-33.968 2.745-.306 4.722-2.779 4.415-5.523-.306-2.744-2.782-4.72-5.522-4.415-32.019 3.571-62.342 16.04-87.693 36.058-2.169 1.712-2.539 4.856-.827 7.023z"/><path d="m478.003 331.314c-12.716 0-19.309 4.751-25.126 8.943-5.255 3.787-9.793 7.057-19.28 7.057-1.808 0-3.434-.12-4.922-.339-4.04-84.84-69.876-154.831-154.672-163.61-2.746-.283-5.204 1.712-5.488 4.459s1.712 5.204 4.459 5.488c78.423 8.118 139.63 71.819 145.443 149.771-1.385-.874-2.719-1.831-4.1-2.827-5.817-4.192-12.41-8.943-25.126-8.943-12.714 0-19.307 4.751-25.124 8.944-5.253 3.786-9.79 7.056-19.276 7.056s-14.024-3.27-19.278-7.056c-5.816-4.192-12.409-8.944-25.124-8.944-12.714 0-19.307 4.751-25.124 8.944-5.253 3.786-9.79 7.056-19.275 7.056-9.486 0-14.023-3.27-19.276-7.057-5.817-4.192-12.409-8.943-25.123-8.943-12.713 0-19.305 4.751-25.121 8.944-5.253 3.786-9.789 7.056-19.273 7.056-9.485 0-14.022-3.27-19.275-7.056-5.816-4.192-12.409-8.944-25.123-8.944s-19.307 4.751-25.124 8.944c-1.378.993-2.708 1.948-4.09 2.821 2.459-33.507 14.962-64.82 36.433-90.993 1.752-2.135 1.441-5.286-.694-7.037-2.133-1.75-5.284-1.44-7.036.694-23.781 28.989-37.206 63.914-38.959 101.231-1.49.219-3.119.34-4.93.34-9.485 0-14.022-3.27-19.275-7.056-5.816-4.192-12.409-8.944-25.123-8.944-2.762 0-5 2.239-5 5s2.238 5 5 5c9.485 0 14.022 3.27 19.275 7.056 5.816 4.192 12.409 8.944 25.123 8.944s19.307-4.751 25.124-8.944c5.253-3.786 9.79-7.056 19.276-7.056 9.485 0 14.022 3.27 19.275 7.056 5.816 4.192 12.409 8.944 25.123 8.944 12.713 0 19.305-4.751 25.121-8.944 5.253-3.786 9.789-7.056 19.273-7.056 9.485 0 14.022 3.27 19.275 7.056 5.817 4.192 12.41 8.944 25.124 8.944s19.306-4.751 25.123-8.943c5.253-3.787 9.79-7.057 19.276-7.057s14.024 3.27 19.278 7.056c5.816 4.192 12.409 8.944 25.124 8.944 12.714 0 19.307-4.751 25.124-8.944 5.253-3.786 9.79-7.056 19.276-7.056 9.487 0 14.025 3.27 19.28 7.057 5.817 4.192 12.41 8.943 25.126 8.943s19.309-4.751 25.126-8.943c5.255-3.787 9.793-7.057 19.28-7.057 2.762 0 5-2.239 5-5s-2.238-4.999-5-4.999z"/><path d="m389.19 376.517c-12.714 0-19.307 4.751-25.124 8.944-5.253 3.786-9.79 7.056-19.276 7.056s-14.024-3.27-19.277-7.056c-5.817-4.192-12.41-8.944-25.125-8.944-12.714 0-19.307 4.751-25.124 8.944-5.253 3.786-9.79 7.056-19.275 7.056-9.486 0-14.023-3.27-19.276-7.057-5.817-4.192-12.409-8.943-25.123-8.943-12.713 0-19.305 4.751-25.121 8.944-5.253 3.786-9.789 7.056-19.273 7.056-9.485 0-14.022-3.27-19.275-7.056-5.816-4.192-12.409-8.944-25.123-8.944-2.762 0-5 2.239-5 5s2.238 5 5 5c9.485 0 14.022 3.27 19.275 7.056 5.816 4.192 12.409 8.944 25.123 8.944 12.713 0 19.305-4.751 25.121-8.944 5.253-3.786 9.789-7.056 19.273-7.056 9.485 0 14.022 3.27 19.275 7.056 5.817 4.192 12.41 8.944 25.124 8.944s19.306-4.751 25.123-8.943c5.253-3.787 9.79-7.057 19.276-7.057s14.024 3.27 19.278 7.056c5.816 4.192 12.409 8.944 25.124 8.944 12.714 0 19.307-4.751 25.124-8.944 5.253-3.786 9.79-7.056 19.276-7.056 2.762 0 5-2.239 5-5s-2.238-5-5-5z"/><path d="m300.388 421.718c-12.714 0-19.307 4.751-25.124 8.944-5.253 3.786-9.79 7.056-19.275 7.056-9.486 0-14.023-3.27-19.276-7.057-5.817-4.192-12.409-8.943-25.123-8.943-2.762 0-5 2.239-5 5s2.238 5 5 5c9.485 0 14.022 3.27 19.275 7.056 5.817 4.192 12.41 8.944 25.124 8.944s19.306-4.751 25.123-8.943c5.253-3.787 9.79-7.057 19.276-7.057 2.762 0 5-2.239 5-5s-2.239-5-5-5z"/><path d="m256 159.875c2.762 0 5-2.239 5-5v-85.593c0-2.761-2.238-5-5-5s-5 2.239-5 5v85.594c0 2.761 2.238 4.999 5 4.999z"/><path d="m200.235 162.875c.599 2.234 2.619 3.708 4.827 3.708.428 0 .863-.056 1.297-.172 2.667-.715 4.25-3.457 3.536-6.124l-6.624-24.722c-.714-2.667-3.452-4.252-6.124-3.536-2.667.715-4.25 3.457-3.536 6.124z"/><path d="m153.271 183.741c.926 1.604 2.606 2.501 4.335 2.501.848 0 1.708-.216 2.495-.671 2.392-1.381 3.211-4.438 1.83-6.83l-34.791-60.261c-1.38-2.391-4.439-3.212-6.83-1.83-2.392 1.381-3.211 4.438-1.83 6.83z"/><path d="m113.308 216.052c.976.976 2.256 1.464 3.535 1.464s2.56-.488 3.535-1.464c1.953-1.953 1.953-5.119 0-7.071l-18.097-18.098c-1.951-1.952-5.119-1.952-7.07 0-1.953 1.953-1.953 5.119 0 7.071z"/><path d="m85.563 258.275c1.729 0 3.409-.897 4.335-2.501 1.381-2.392.562-5.449-1.83-6.83l-63.291-36.541c-2.394-1.383-5.451-.561-6.83 1.83-1.381 2.392-.562 5.449 1.83 6.83l63.291 36.541c.787.455 1.648.671 2.495.671z"/><path d="m42.48 289.284c-2.667-.716-5.409.868-6.124 3.536-.714 2.667.869 5.409 3.536 6.124l24.722 6.624c.434.116.868.172 1.297.172 2.208 0 4.229-1.474 4.827-3.708.714-2.667-.869-5.409-3.536-6.124z"/><path d="m305.641 166.411c.434.116.868.172 1.297.172 2.208 0 4.229-1.474 4.827-3.708l6.624-24.722c.714-2.667-.869-5.409-3.536-6.124s-5.409.868-6.124 3.536l-6.624 24.722c-.714 2.667.869 5.409 3.536 6.124z"/><path d="m351.898 185.571c.787.455 1.647.671 2.495.671 1.729 0 3.409-.897 4.335-2.501l34.792-60.261c1.381-2.392.562-5.449-1.83-6.83-2.394-1.382-5.45-.561-6.83 1.83l-34.792 60.261c-1.38 2.392-.561 5.449 1.83 6.83z"/><path d="m391.622 216.052c.976.976 2.256 1.464 3.535 1.464s2.56-.488 3.535-1.464l18.097-18.098c1.953-1.953 1.953-5.119 0-7.071-1.951-1.952-5.119-1.952-7.07 0l-18.097 18.098c-1.953 1.952-1.953 5.118 0 7.071z"/><path d="m494.053 214.233c-1.381-2.391-4.439-3.213-6.83-1.83l-63.291 36.541c-2.392 1.381-3.211 4.438-1.83 6.83.926 1.604 2.606 2.501 4.335 2.501.848 0 1.708-.216 2.495-.671l63.291-36.541c2.391-1.381 3.211-4.438 1.83-6.83z"/><path d="m446.089 305.739c.428 0 .863-.056 1.297-.172l24.722-6.624c2.667-.715 4.25-3.457 3.536-6.124s-3.452-4.25-6.124-3.536l-24.722 6.624c-2.667.715-4.25 3.457-3.536 6.124.598 2.235 2.619 3.708 4.827 3.708z"/></g></g><g fill="#ffa438"><path d="m412.028 72.668c-1.951-1.952-5.119-1.952-7.07 0l-5.258 5.258v-1.722c0-2.761-2.238-5-5-5s-5 2.239-5 5v13.793c0 2.761 2.238 5 5 5h13.793c2.762 0 5-2.239 5-5s-2.238-5-5-5h-1.723l5.258-5.258c1.953-1.952 1.953-5.118 0-7.071z"/><path d="m433.328 399.413h-1.723l5.258-5.258c1.953-1.953 1.953-5.119 0-7.071-1.951-1.952-5.119-1.952-7.07 0l-5.258 5.258v-1.722c0-2.761-2.238-5-5-5s-5 2.239-5 5v13.793c0 2.761 2.238 5 5 5h13.793c2.762 0 5-2.239 5-5s-2.238-5-5-5z"/></g><g fill="#ffc55e"><path d="m169.372 65.772c-1.951-1.952-5.119-1.952-7.07 0l-5.259 5.259v-1.723c0-2.761-2.238-5-5-5s-5 2.239-5 5v13.793c0 2.761 2.238 5 5 5h13.794c2.762 0 5-2.239 5-5s-2.238-5-5-5h-1.723l5.258-5.258c1.953-1.952 1.953-5.118 0-7.071z"/><path d="m361.296 77.066h-13.794c-2.762 0-5 2.239-5 5s2.238 5 5 5h1.723l-5.258 5.258c-1.953 1.953-1.953 5.119 0 7.071.976.976 2.256 1.464 3.535 1.464s2.56-.488 3.535-1.464l5.259-5.259v1.723c0 2.761 2.238 5 5 5s5-2.239 5-5v-13.793c0-2.761-2.238-5-5-5z"/></g></g></g></svg>